<svg xmlns="http://www.w3.org/2000/svg" version="1.1" xmlns:xlink="http://www.w3.org/1999/xlink" xmlns:svgjs="http://svgjs.dev/svgjs" width="2000" height="1247" viewBox="0 0 2000 1247"><g transform="matrix(1,0,0,1,-1.2121212121212466,0.504858299595071)"><svg viewBox="0 0 396 247" data-background-color="#ffffff" preserveAspectRatio="xMidYMid meet" height="1247" width="2000" xmlns="http://www.w3.org/2000/svg" xmlns:xlink="http://www.w3.org/1999/xlink"><g id="tight-bounds" transform="matrix(1,0,0,1,0.2400000000000091,-0.09999999999999432)"><svg viewBox="0 0 395.52 247.2" height="247.2" width="395.52"><g><svg></svg></g><g><svg viewBox="0 0 395.52 247.2" height="247.2" width="395.52"><g transform="matrix(1,0,0,1,75.54432000000001,100.02950709496875)"><svg viewBox="0 0 244.43135999999996 47.140985810062475" height="47.140985810062475" width="244.43135999999996"><g><svg viewBox="0 0 309.2434799307301 59.64063898866696" height="47.140985810062475" width="244.43135999999996"><g transform="matrix(1,0,0,1,64.8121199307301,5.328578658744945)"><svg viewBox="0 0 244.43135999999998 48.98348167117707" height="48.98348167117707" width="244.43135999999998"><g id="textblocktransform"><svg viewBox="0 0 244.43135999999998 48.98348167117707" height="48.98348167117707" width="244.43135999999998" id="textblock"><g><svg viewBox="0 0 244.43135999999998 21.90600036455696" height="21.90600036455696" width="244.43135999999998"><g transform="matrix(1,0,0,1,0,0)"><svg width="244.43135999999998" viewBox="1.75 -43.85 493.72 44.25" height="21.90600036455696" data-palette-color="#0097c8"><path d="M42.05-41.5Q43.6-41.2 44.38-40.45 45.15-39.7 45.15-38.7L45.15-38.7Q45.15-37.05 44.23-36.3 43.3-35.55 41.3-35.7L41.3-35.7Q36.8-36.05 34.27-36.18 31.75-36.3 27.65-36.35L27.65-36.35Q25.8-27.15 24.25-17.85L24.25-17.85Q23.7-14.45 23.1-9.98 22.5-5.5 22.3-2.75L22.3-2.75Q22.2-1.3 21.1-0.53 20 0.25 18.45 0.25L18.45 0.25Q16.8 0.25 15.9-0.55 15-1.35 15-2.65L15-2.65Q15-3.85 15.38-6.63 15.75-9.4 16.25-12.45L16.25-12.45Q16.8-15.5 17.1-17.75L17.1-17.75Q17.65-21.55 18.35-25.3 19.05-29.05 19.75-32.4L19.75-32.4Q19.9-33.15 20.1-34.13 20.3-35.1 20.55-36.3L20.55-36.3Q15.65-36.15 12.85-35.5 10.05-34.85 8.88-33.68 7.7-32.5 7.7-30.65L7.7-30.65Q7.7-28.95 8.7-27.4L8.7-27.4Q8.9-27.05 8.9-26.65L8.9-26.65Q8.9-25.7 7.78-24.88 6.65-24.05 5.45-24.05L5.45-24.05Q4.6-24.05 4.05-24.55L4.05-24.55Q3.05-25.4 2.4-26.98 1.75-28.55 1.75-30.55L1.75-30.55Q1.75-34.8 4.53-37.38 7.3-39.95 12.98-41.15 18.65-42.35 27.55-42.35L27.55-42.35Q33.05-42.35 36.33-42.15 39.6-41.95 42.05-41.5L42.05-41.5ZM83.55-11.15Q84.2-11.15 84.57-10.55 84.95-9.95 84.95-8.9L84.95-8.9Q84.95-6.95 84-5.8L84-5.8Q79.05 0.25 73.45 0.25L73.45 0.25Q68.6 0.25 65.7-3.5 62.8-7.25 62.8-14.25L62.8-14.25Q62.8-15.95 62.95-17.65L62.95-17.65Q59.65-17.05 55.75-16.75L55.75-16.75Q53.15-16.55 52.2-16.5L52.2-16.5Q51.2-11.4 49.4-4L49.4-4Q48.35 0.35 45.4 0.35L45.4 0.35Q42.2 0.35 42.2-2.55L42.2-2.55Q42.2-3.2 42.45-4.35L42.45-4.35Q44.15-11.2 45.15-15.95L45.15-15.95 42.75-15.85Q41.1-15.85 40.35-16.43 39.6-17 39.6-18.3L39.6-18.3Q39.6-19.95 40.55-20.73 41.5-21.5 43.7-21.6L43.7-21.6 46.35-21.7Q47.65-28.75 47.65-32.45L47.65-32.45Q47.65-34.8 46.95-35.65 46.25-36.5 45.1-36.5L45.1-36.5Q41.6-36.5 37.2-30.65L37.2-30.65Q36.55-29.8 35.75-29.8L35.75-29.8Q35.05-29.8 34.55-30.45 34.05-31.1 34.05-32.1L34.05-32.1Q34.05-33.65 35.3-35.4L35.3-35.4Q37.5-38.45 40.85-40.43 44.2-42.4 47.65-42.4L47.65-42.4Q50.9-42.4 52.67-40.18 54.45-37.95 54.45-33.25L54.45-33.25Q54.45-29.1 53.25-22L53.25-22 58.15-22.25Q61.3-22.4 63.55-22.75L63.55-22.75Q64.45-28.25 66.3-33.05 68.15-37.85 70.9-40.85 73.65-43.85 77.05-43.85L77.05-43.85Q79.55-43.85 81-41.88 82.45-39.9 82.45-36.7L82.45-36.7Q82.45-24.3 69.8-19.5L69.8-19.5Q69.65-17.5 69.65-15.35L69.65-15.35Q69.65-10.1 70.95-7.9 72.25-5.7 74.6-5.7L74.6-5.7Q76.65-5.7 78.35-6.78 80.05-7.85 82.2-10.45L82.2-10.45Q82.8-11.15 83.55-11.15L83.55-11.15ZM76.8-39.5Q75.7-39.5 74.47-37.5 73.25-35.5 72.15-32.05 71.05-28.6 70.4-24.5L70.4-24.5Q74.4-26.15 76.3-29.2 78.2-32.25 78.2-37.05L78.2-37.05Q78.2-38.2 77.8-38.85 77.4-39.5 76.8-39.5L76.8-39.5ZM116.25-9.1Q117-9.4 117.5-9.4L117.5-9.4Q118.3-9.4 118.7-8.8 119.09-8.2 119.09-7.25L119.09-7.25Q119.09-5.75 118.37-4.7 117.65-3.65 115.9-2.8L115.9-2.8Q112.95-1.4 108.25-0.58 103.55 0.25 99 0.25L99 0.25Q92.7 0.25 88.45-1.18 84.2-2.6 82.12-5.1 80.05-7.6 80.05-10.75L80.05-10.75Q80.05-15.05 82.82-18.07 85.59-21.1 91-22.45L91-22.45Q88.05-23.3 86.47-25.45 84.9-27.6 84.9-30.25L84.9-30.25Q84.9-33.85 87.17-36.63 89.45-39.4 93.3-40.9 97.15-42.4 101.75-42.4L101.75-42.4Q107.95-42.4 111.05-39.73 114.15-37.05 114.15-32.8L114.15-32.8Q114.15-29.85 113.07-28.03 112-26.2 110-26.2L110-26.2Q108.59-26.2 107.8-26.83 107-27.45 107-28.7L107-28.7Q107-29.55 107.25-30.55L107.25-30.55Q107.5-32.2 107.5-32.8L107.5-32.8Q107.5-34.6 106.15-35.73 104.8-36.85 101.65-36.85L101.65-36.85Q97.4-36.85 94.84-35.05 92.3-33.25 92.3-30.2L92.3-30.2Q92.3-27.85 94.22-26.33 96.15-24.8 100.5-24.65L100.5-24.65Q101.59-24.6 102.05-24.15 102.5-23.7 102.5-22.65L102.5-22.65Q102.5-19.35 99.5-19.3L99.5-19.3Q95.34-19.2 92.62-18.15 89.9-17.1 88.67-15.48 87.45-13.85 87.45-12L87.45-12Q87.45-8.9 90.34-7.33 93.25-5.75 99.55-5.75L99.55-5.75Q103.7-5.75 108.32-6.73 112.95-7.7 116.25-9.1L116.25-9.1ZM142.64 0.25Q138.44 0.25 136.29-2.08 134.14-4.4 134.14-8.3L134.14-8.3Q134.14-10.5 134.79-13.65L134.79-13.65 137.89-27.95Q137.99-28.35 138.37-30.15 138.74-31.95 138.74-34.05L138.74-34.05Q138.74-35.25 138.27-35.85 137.79-36.45 136.99-36.45L136.99-36.45Q135.49-36.45 133.49-35.02 131.49-33.6 129.29-30.65L129.29-30.65Q128.59-29.7 127.74-29.7L127.74-29.7Q127.04-29.7 126.52-30.38 125.99-31.05 125.99-31.9L125.99-31.9Q125.99-33.45 127.39-35.4L127.39-35.4Q132.49-42.4 139.34-42.4L139.34-42.4Q142.39-42.4 144.12-40.55 145.84-38.7 145.84-35.1L145.84-35.1Q145.84-32.55 145.49-30.4 145.14-28.25 144.29-24.55L144.29-24.55 142.24-15.4Q142.14-14.95 141.89-13.8 141.64-12.65 141.49-11.63 141.34-10.6 141.34-9.6L141.34-9.6Q141.34-8 142.24-7.05 143.14-6.1 144.79-6.1L144.79-6.1Q147.79-6.1 150.87-9.3 153.94-12.5 156.57-19.63 159.19-26.75 160.64-37.85L160.64-37.85Q160.99-40.4 161.67-41.4 162.34-42.4 164.29-42.4L164.29-42.4Q166.04-42.4 166.89-41.35 167.74-40.3 167.74-37.95L167.74-37.95Q167.74-36.6 167.42-34.4 167.09-32.2 166.44-28.25L166.44-28.25Q165.09-20.6 164.29-14.2L164.29-14.2Q163.89-11.3 163.89-9.9L163.89-9.9Q163.89-7.85 164.82-6.78 165.74-5.7 167.29-5.7L167.29-5.7Q168.94-5.7 170.52-6.8 172.09-7.9 174.24-10.45L174.24-10.45Q174.84-11.15 175.59-11.15L175.59-11.15Q176.24-11.15 176.62-10.55 176.99-9.95 176.99-8.9L176.99-8.9Q176.99-6.95 176.04-5.8L176.04-5.8Q173.44-2.65 170.89-1.2 168.34 0.25 165.54 0.25L165.54 0.25Q161.39 0.25 159.19-1.88 156.99-4 156.99-7.4L156.99-7.4Q156.99-9.3 157.79-14.8L157.79-14.8Q155.29-7.45 151.47-3.6 147.64 0.25 142.64 0.25L142.64 0.25ZM222.44-11.15Q223.09-11.15 223.46-10.55 223.84-9.95 223.84-8.9L223.84-8.9Q223.84-6.95 222.89-5.8L222.89-5.8Q220.49-2.9 218.04-1.33 215.59 0.25 212.24 0.25L212.24 0.25Q208.54 0.25 206.19-1.93 203.84-4.1 201.79-8.7L201.79-8.7Q200.29-12 199.31-13.63 198.34-15.25 197.39-15.93 196.44-16.6 194.99-16.75L194.99-16.75 194.44-13.05Q193.39-5.9 190.36-2.75 187.34 0.4 182.04 0.4L182.04 0.4Q178.59 0.4 175.91-1.28 173.24-2.95 172.19-5.55L172.19-5.55Q171.84-6.45 171.84-7.5L171.84-7.5Q171.84-9 172.54-10.1 173.24-11.2 174.34-11.2L174.34-11.2Q174.99-11.2 175.44-10.88 175.89-10.55 176.29-9.75L176.29-9.75Q177.84-6.85 179.01-5.7 180.19-4.55 181.94-4.55L181.94-4.55Q183.94-4.55 185.36-6.38 186.79-8.2 187.39-12L187.39-12 188.09-16.75 187.29-16.75Q186.14-16.75 185.49-17.4 184.84-18.05 184.84-19.2L184.84-19.2Q184.84-20.5 185.51-21.28 186.19-22.05 187.19-22.05L187.19-22.05 188.84-22.05Q189.19-24.5 189.34-25.45L189.34-25.45 190.89-36.7Q189.59-36.85 188.44-36.85L188.44-36.85Q184.19-36.85 181.99-35.38 179.79-33.9 179.79-31.15L179.79-31.15Q179.79-29.9 180.06-29.13 180.34-28.35 180.79-27.4L180.79-27.4Q180.99-27 180.99-26.5L180.99-26.5Q180.99-25.4 179.96-24.58 178.94-23.75 177.69-23.75L177.69-23.75Q176.09-23.75 175.34-25.15L175.34-25.15Q173.84-27.8 173.84-30.85L173.84-30.85Q173.84-34 175.56-36.6 177.29-39.2 180.79-40.78 184.29-42.35 189.44-42.35L189.44-42.35Q191.69-42.35 193.56-42.1 195.44-41.85 197.69-41.15L197.69-41.15Q200.14-40.4 200.14-38.35L200.14-38.35Q200.14-35.6 197.79-35.6L197.79-35.6 195.84-22.15Q201.69-22.75 205.36-27.18 209.04-31.6 211.49-39.2L211.49-39.2Q211.94-40.6 213.01-41.35 214.09-42.1 215.74-42.1L215.74-42.1Q217.14-42.1 217.91-41.48 218.69-40.85 218.69-39.7L218.69-39.7Q218.69-39.35 218.49-38.55L218.49-38.55Q215.99-30.3 211.34-25.45 206.69-20.6 201.19-19L201.19-19Q203.09-18.55 204.31-17.65 205.54-16.75 206.39-15.43 207.24-14.1 208.34-11.75L208.34-11.75Q209.89-8.45 211.24-7.08 212.59-5.7 214.39-5.7L214.39-5.7Q215.99-5.7 217.44-6.78 218.89-7.85 221.09-10.45L221.09-10.45Q221.69-11.15 222.44-11.15L222.44-11.15ZM268.38-9.1Q269.13-9.4 269.63-9.4L269.63-9.4Q270.43-9.4 270.83-8.8 271.23-8.2 271.23-7.25L271.23-7.25Q271.23-5.75 270.51-4.7 269.78-3.65 268.03-2.8L268.03-2.8Q265.08-1.4 260.38-0.58 255.68 0.25 251.13 0.25L251.13 0.25Q244.83 0.25 240.58-1.18 236.33-2.6 234.26-5.1 232.18-7.6 232.18-10.75L232.18-10.75Q232.18-15.05 234.96-18.07 237.73-21.1 243.13-22.45L243.13-22.45Q240.18-23.3 238.61-25.45 237.03-27.6 237.03-30.25L237.03-30.25Q237.03-33.85 239.31-36.63 241.58-39.4 245.43-40.9 249.28-42.4 253.88-42.4L253.88-42.4Q260.08-42.4 263.18-39.73 266.28-37.05 266.28-32.8L266.28-32.8Q266.28-29.85 265.21-28.03 264.13-26.2 262.13-26.2L262.13-26.2Q260.73-26.2 259.93-26.83 259.13-27.45 259.13-28.7L259.13-28.7Q259.13-29.55 259.38-30.55L259.38-30.55Q259.63-32.2 259.63-32.8L259.63-32.8Q259.63-34.6 258.28-35.73 256.93-36.85 253.78-36.85L253.78-36.85Q249.53-36.85 246.98-35.05 244.43-33.25 244.43-30.2L244.43-30.2Q244.43-27.85 246.36-26.33 248.28-24.8 252.63-24.65L252.63-24.65Q253.73-24.6 254.18-24.15 254.63-23.7 254.63-22.65L254.63-22.65Q254.63-19.35 251.63-19.3L251.63-19.3Q247.48-19.2 244.76-18.15 242.03-17.1 240.81-15.48 239.58-13.85 239.58-12L239.58-12Q239.58-8.9 242.48-7.33 245.38-5.75 251.68-5.75L251.68-5.75Q255.83-5.75 260.46-6.73 265.08-7.7 268.38-9.1L268.38-9.1ZM308.13-21.6Q309.28-21.6 309.81-21.1 310.33-20.6 310.33-19.8L310.33-19.8Q310.33-18.5 309.56-17.5 308.78-16.5 307.13-16.45L307.13-16.45Q303.13-16.35 300.03-17.05L300.03-17.05Q296.48-9.6 291.45-4.67 286.43 0.25 281.38 0.25L281.38 0.25Q276.18 0.25 273.63-5.8 271.08-11.85 271.08-22.15L271.08-22.15Q271.08-30.95 272.33-37.95L272.33-37.95Q272.78-40.55 273.61-41.48 274.43-42.4 276.43-42.4L276.43-42.4Q279.73-42.4 279.73-39.55L279.73-39.55Q279.73-39.25 279.63-38.45L279.63-38.45Q278.13-29.45 278.13-22.15L278.13-22.15Q278.13-14.5 279.41-10.53 280.68-6.55 283.23-6.55L283.23-6.55Q285.83-6.55 288.88-10.15 291.93-13.75 294.48-19.2L294.48-19.2Q291.43-21.1 289.88-24.13 288.33-27.15 288.33-31.1L288.33-31.1Q288.33-35.05 289.56-37.77 290.78-40.5 292.91-41.85 295.03-43.2 297.63-43.2L297.63-43.2Q300.83-43.2 302.7-40.9 304.58-38.6 304.58-34.6L304.58-34.6Q304.58-28.85 302.08-22.05L302.08-22.05Q304.73-21.6 308.13-21.6L308.13-21.6ZM293.38-31.45Q293.38-26.55 296.53-24.2L296.53-24.2Q298.48-29.8 298.48-33.45L298.48-33.45Q298.48-35.55 297.93-36.52 297.38-37.5 296.43-37.5L296.43-37.5Q295.08-37.5 294.23-35.93 293.38-34.35 293.38-31.45L293.38-31.45ZM340.83-9.1Q341.58-9.4 342.08-9.4L342.08-9.4Q342.88-9.4 343.28-8.8 343.68-8.2 343.68-7.25L343.68-7.25Q343.68-5.75 342.95-4.7 342.23-3.65 340.48-2.8L340.48-2.8Q337.53-1.4 332.83-0.58 328.13 0.25 323.58 0.25L323.58 0.25Q317.28 0.25 313.03-1.18 308.78-2.6 306.7-5.1 304.63-7.6 304.63-10.75L304.63-10.75Q304.63-15.05 307.4-18.07 310.18-21.1 315.58-22.45L315.58-22.45Q312.63-23.3 311.05-25.45 309.48-27.6 309.48-30.25L309.48-30.25Q309.48-33.85 311.75-36.63 314.03-39.4 317.88-40.9 321.73-42.4 326.33-42.4L326.33-42.4Q332.53-42.4 335.63-39.73 338.73-37.05 338.73-32.8L338.73-32.8Q338.73-29.85 337.65-28.03 336.58-26.2 334.58-26.2L334.58-26.2Q333.18-26.2 332.38-26.83 331.58-27.45 331.58-28.7L331.58-28.7Q331.58-29.55 331.83-30.55L331.83-30.55Q332.08-32.2 332.08-32.8L332.08-32.8Q332.08-34.6 330.73-35.73 329.38-36.85 326.23-36.85L326.23-36.85Q321.98-36.85 319.43-35.05 316.88-33.25 316.88-30.2L316.88-30.2Q316.88-27.85 318.8-26.33 320.73-24.8 325.08-24.65L325.08-24.65Q326.18-24.6 326.63-24.15 327.08-23.7 327.08-22.65L327.08-22.65Q327.08-19.35 324.08-19.3L324.08-19.3Q319.93-19.2 317.2-18.15 314.48-17.1 313.25-15.48 312.03-13.85 312.03-12L312.03-12Q312.03-8.9 314.93-7.33 317.83-5.75 324.13-5.75L324.13-5.75Q328.28-5.75 332.9-6.73 337.53-7.7 340.83-9.1L340.83-9.1ZM386.43-11.15Q387.07-11.15 387.45-10.55 387.82-9.95 387.82-8.9L387.82-8.9Q387.82-6.95 386.88-5.8L386.88-5.8Q384.48-2.9 382.02-1.33 379.57 0.25 376.23 0.25L376.23 0.25Q372.98 0.25 370.7-1.5 368.43-3.25 366.38-7.5L366.38-7.5Q364.73-10.9 363.77-12.53 362.82-14.15 361.9-14.85 360.98-15.55 359.63-15.7L359.63-15.7Q359.43-14.65 358.48-9.1L358.48-9.1Q358.07-6.6 357.98-6.05L357.98-6.05Q357.48-3 355.98-1.38 354.48 0.25 351.43 0.25L351.43 0.25Q348.07 0.25 345.5-1.73 342.93-3.7 341.52-7.23 340.13-10.75 340.13-15.25L340.13-15.25Q340.13-23.65 343.05-29.75 345.98-35.85 351.25-39.08 356.52-42.3 363.43-42.3L363.43-42.3Q368.23-42.3 371.48-40.85 374.73-39.4 376.3-36.85 377.88-34.3 377.88-31.1L377.88-31.1Q377.88-28.3 376.55-25.63 375.23-22.95 372.57-20.9 369.93-18.85 366.13-17.85L366.13-17.85Q368.52-17.2 369.82-15.75 371.13-14.3 372.43-11.5L372.43-11.5Q373.82-8.5 375.2-7.1 376.57-5.7 378.38-5.7L378.38-5.7Q379.98-5.7 381.43-6.78 382.88-7.85 385.07-10.45L385.07-10.45Q385.68-11.15 386.43-11.15L386.43-11.15ZM351.38-8.25L352.73-15.75Q351.02-15.75 350.4-16.55 349.77-17.35 349.77-18.35L349.77-18.35Q349.77-19.55 350.55-20.25 351.32-20.95 352.32-20.95L352.32-20.95 353.57-20.95Q354.38-25.85 355.07-29.4L355.07-29.4Q355.73-32.65 359.27-32.65L359.27-32.65Q362.13-32.65 362.13-30.1L362.13-30.1Q362.13-29.55 362.07-29.25L362.07-29.25 360.57-20.95Q363.27-21.1 365.5-22.25 367.73-23.4 369.05-25.45 370.38-27.5 370.38-30.1L370.38-30.1Q370.38-33.25 368.23-35.05 366.07-36.85 361.93-36.85L361.93-36.85Q357.02-36.85 353.35-34.43 349.68-32 347.63-27.23 345.57-22.45 345.57-15.6L345.57-15.6Q345.57-12.4 346.23-10.1 346.88-7.8 347.82-6.65 348.77-5.5 349.63-5.5L349.63-5.5Q350.27-5.5 350.7-6.15 351.13-6.8 351.38-8.25L351.38-8.25ZM419.12-9.1Q419.87-9.4 420.37-9.4L420.37-9.4Q421.17-9.4 421.57-8.8 421.97-8.2 421.97-7.25L421.97-7.25Q421.97-5.75 421.25-4.7 420.52-3.65 418.77-2.8L418.77-2.8Q415.82-1.4 411.12-0.58 406.42 0.25 401.87 0.25L401.87 0.25Q395.57 0.25 391.32-1.18 387.07-2.6 385-5.1 382.92-7.6 382.92-10.75L382.92-10.75Q382.92-15.05 385.7-18.07 388.47-21.1 393.87-22.45L393.87-22.45Q390.92-23.3 389.35-25.45 387.77-27.6 387.77-30.25L387.77-30.25Q387.77-33.85 390.05-36.63 392.32-39.4 396.17-40.9 400.02-42.4 404.62-42.4L404.62-42.4Q410.82-42.4 413.92-39.73 417.02-37.05 417.02-32.8L417.02-32.8Q417.02-29.85 415.95-28.03 414.87-26.2 412.87-26.2L412.87-26.2Q411.47-26.2 410.67-26.83 409.87-27.45 409.87-28.7L409.87-28.7Q409.87-29.55 410.12-30.55L410.12-30.55Q410.37-32.2 410.37-32.8L410.37-32.8Q410.37-34.6 409.02-35.73 407.67-36.85 404.52-36.85L404.52-36.85Q400.27-36.85 397.72-35.05 395.17-33.25 395.17-30.2L395.17-30.2Q395.17-27.85 397.1-26.33 399.02-24.8 403.37-24.65L403.37-24.65Q404.47-24.6 404.92-24.15 405.37-23.7 405.37-22.65L405.37-22.65Q405.37-19.35 402.37-19.3L402.37-19.3Q398.22-19.2 395.5-18.15 392.77-17.1 391.55-15.48 390.32-13.85 390.32-12L390.32-12Q390.32-8.9 393.22-7.33 396.12-5.75 402.42-5.75L402.42-5.75Q406.57-5.75 411.2-6.73 415.82-7.7 419.12-9.1L419.12-9.1ZM432.02 0.4Q425.37 0.4 421.37-2.13 417.37-4.65 417.37-9.85L417.37-9.85Q417.37-12.6 418.32-14.05 419.27-15.5 421.12-15.5L421.12-15.5Q422.47-15.5 423.32-14.8 424.17-14.1 424.17-13L424.17-13Q424.17-12 424.02-11.25L424.02-11.25Q424.02-11.05 423.94-10.55 423.87-10.05 423.87-9.5L423.87-9.5Q423.87-7.25 426.15-6.15 428.42-5.05 432.52-5.05L432.52-5.05Q436.77-5.05 439.17-6.58 441.57-8.1 441.57-10.85L441.57-10.85Q441.57-12.55 440.47-13.78 439.37-15 437.72-15.83 436.07-16.65 433.07-17.85L433.07-17.85Q429.22-19.35 426.8-20.7 424.37-22.05 422.65-24.38 420.92-26.7 420.92-30.15L420.92-30.15Q420.92-33.75 422.85-36.55 424.77-39.35 428.4-40.9 432.02-42.45 436.92-42.45L436.92-42.45Q440.57-42.45 443.62-41.38 446.67-40.3 448.5-38.1 450.32-35.9 450.32-32.7L450.32-32.7Q450.32-29.55 449.37-27.95 448.42-26.35 446.57-26.35L446.57-26.35Q445.27-26.35 444.4-27.15 443.52-27.95 443.52-29.05L443.52-29.05Q443.52-30 443.67-30.8L443.67-30.8Q443.82-32.3 443.82-32.7L443.82-32.7Q443.82-34.8 441.77-35.9 439.72-37 436.67-37L436.67-37Q432.37-37 430.1-35.43 427.82-33.85 427.82-31L427.82-31Q427.82-29.1 429-27.75 430.17-26.4 431.92-25.5 433.67-24.6 436.82-23.35L436.82-23.35Q440.62-21.8 442.92-20.55 445.22-19.3 446.85-17.15 448.47-15 448.47-11.85L448.47-11.85Q448.47-5.95 444-2.78 439.52 0.4 432.02 0.4L432.02 0.4ZM492.37-41.5Q493.92-41.2 494.69-40.45 495.47-39.7 495.47-38.7L495.47-38.7Q495.47-37.05 494.54-36.3 493.62-35.55 491.62-35.7L491.62-35.7Q487.12-36.05 484.59-36.18 482.07-36.3 477.97-36.35L477.97-36.35Q476.12-27.15 474.57-17.85L474.57-17.85Q474.02-14.45 473.42-9.98 472.82-5.5 472.62-2.75L472.62-2.75Q472.52-1.3 471.42-0.53 470.32 0.25 468.77 0.25L468.77 0.25Q467.12 0.25 466.22-0.55 465.32-1.35 465.32-2.65L465.32-2.65Q465.32-3.85 465.69-6.63 466.07-9.4 466.57-12.45L466.57-12.45Q467.12-15.5 467.42-17.75L467.42-17.75Q467.97-21.55 468.67-25.3 469.37-29.05 470.07-32.4L470.07-32.4Q470.22-33.15 470.42-34.13 470.62-35.1 470.87-36.3L470.87-36.3Q465.97-36.15 463.17-35.5 460.37-34.85 459.19-33.68 458.02-32.5 458.02-30.65L458.02-30.65Q458.02-28.95 459.02-27.4L459.02-27.4Q459.22-27.05 459.22-26.65L459.22-26.65Q459.22-25.7 458.09-24.88 456.97-24.05 455.77-24.05L455.77-24.05Q454.92-24.05 454.37-24.55L454.37-24.55Q453.37-25.4 452.72-26.98 452.07-28.55 452.07-30.55L452.07-30.55Q452.07-34.8 454.84-37.38 457.62-39.95 463.29-41.15 468.97-42.35 477.87-42.35L477.87-42.35Q483.37-42.35 486.64-42.15 489.92-41.95 492.37-41.5L492.37-41.5Z" opacity="1" transform="matrix(1,0,0,1,0,0)" fill="#0097c8" class="wordmark-text-0" data-fill-palette-color="primary" id="text-0"></path></svg></g></svg></g><g transform="matrix(1,0,0,1,0,27.077481306620108)"><svg viewBox="0 0 90.32495634188648 21.90600036455696" height="21.90600036455696" width="90.32495634188648"><g transform="matrix(1,0,0,1,0,0)"><svg width="90.32495634188648" viewBox="2.75 -47 287.57 69.75" height="21.90600036455696" data-palette-color="#0097c8"><path d="M49.05-11.15Q49.7-11.15 50.08-10.55 50.45-9.95 50.45-8.9L50.45-8.9Q50.45-6.95 49.5-5.8L49.5-5.8Q47.1-2.9 44.65-1.33 42.2 0.25 38.85 0.25L38.85 0.25Q35.6 0.25 33.33-1.5 31.05-3.25 29-7.5L29-7.5Q27.35-10.9 26.4-12.53 25.45-14.15 24.53-14.85 23.6-15.55 22.25-15.7L22.25-15.7Q22.05-14.65 21.1-9.1L21.1-9.1Q20.7-6.6 20.6-6.05L20.6-6.05Q20.1-3 18.6-1.38 17.1 0.25 14.05 0.25L14.05 0.25Q10.7 0.25 8.13-1.73 5.55-3.7 4.15-7.23 2.75-10.75 2.75-15.25L2.75-15.25Q2.75-23.65 5.68-29.75 8.6-35.85 13.88-39.08 19.15-42.3 26.05-42.3L26.05-42.3Q30.85-42.3 34.1-40.85 37.35-39.4 38.93-36.85 40.5-34.3 40.5-31.1L40.5-31.1Q40.5-28.3 39.18-25.63 37.85-22.95 35.2-20.9 32.55-18.85 28.75-17.85L28.75-17.85Q31.15-17.2 32.45-15.75 33.75-14.3 35.05-11.5L35.05-11.5Q36.45-8.5 37.83-7.1 39.2-5.7 41-5.7L41-5.7Q42.6-5.7 44.05-6.78 45.5-7.85 47.7-10.45L47.7-10.45Q48.3-11.15 49.05-11.15L49.05-11.15ZM14-8.25L15.35-15.75Q13.65-15.75 13.03-16.55 12.4-17.35 12.4-18.35L12.4-18.35Q12.4-19.55 13.18-20.25 13.95-20.95 14.95-20.95L14.95-20.95 16.2-20.95Q17-25.85 17.7-29.4L17.7-29.4Q18.35-32.65 21.9-32.65L21.9-32.65Q24.75-32.65 24.75-30.1L24.75-30.1Q24.75-29.55 24.7-29.25L24.7-29.25 23.2-20.95Q25.9-21.1 28.13-22.25 30.35-23.4 31.68-25.45 33-27.5 33-30.1L33-30.1Q33-33.25 30.85-35.05 28.7-36.85 24.55-36.85L24.55-36.85Q19.65-36.85 15.98-34.43 12.3-32 10.25-27.23 8.2-22.45 8.2-15.6L8.2-15.6Q8.2-12.4 8.85-10.1 9.5-7.8 10.45-6.65 11.4-5.5 12.25-5.5L12.25-5.5Q12.9-5.5 13.33-6.15 13.75-6.8 14-8.25L14-8.25ZM67.7-11.15Q68.35-11.15 68.72-10.55 69.1-9.95 69.1-8.9L69.1-8.9Q69.1-6.9 68.15-5.8L68.15-5.8Q66.3-3.55 62.92-1.65 59.55 0.25 55.7 0.25L55.7 0.25Q50.45 0.25 47.55-2.6 44.65-5.45 44.65-10.4L44.65-10.4Q44.65-13.85 46.1-16.82 47.55-19.8 50.12-21.55 52.7-23.3 55.95-23.3L55.95-23.3Q58.85-23.3 60.6-21.58 62.35-19.85 62.35-16.9L62.35-16.9Q62.35-13.45 59.87-10.98 57.4-8.5 51.5-7.05L51.5-7.05Q52.75-4.75 56.25-4.75L56.25-4.75Q58.5-4.75 61.37-6.33 64.25-7.9 66.35-10.45L66.35-10.45Q66.95-11.15 67.7-11.15L67.7-11.15ZM55.1-18.4Q53.25-18.4 51.97-16.25 50.7-14.1 50.7-11.05L50.7-11.05 50.7-10.95Q53.65-11.65 55.35-13.05 57.05-14.45 57.05-16.3L57.05-16.3Q57.05-17.25 56.52-17.82 56-18.4 55.1-18.4L55.1-18.4ZM84.5-14Q85.9-14 85.9-11.9L85.9-11.9Q85.9-7.95 79.7-7.95L79.7-7.95Q78.5-7.95 76.25-8.4L76.25-8.4Q76.9-5.3 77.32-1.53 77.75 2.25 77.75 4.7L77.75 4.7Q77.75 10.1 76 12.95 74.25 15.8 71.4 15.8L71.4 15.8Q67.8 15.8 66.27 10.7 64.75 5.6 64.75-4.7L64.75-4.7Q64.75-14.3 66.82-24.18 68.9-34.05 72.52-40.53 76.15-47 80.5-47L80.5-47Q82.85-47 84.17-44.9 85.5-42.8 85.5-39.25L85.5-39.25Q85.5-27.5 71.45-13.65L71.45-13.65Q70.95-8.75 70.95-5.05L70.95-5.05Q70.95 0.1 71.3 5.53 71.65 10.95 72.45 10.95L72.45 10.95Q73.95 10.95 73.95 5.75L73.95 5.75Q73.95 1.85 73.42-1.8 72.9-5.45 72-9.5L72-9.5Q71.95-10.15 72.42-11.15 72.9-12.15 73.6-12.9 74.3-13.65 74.85-13.65L74.85-13.65Q75.85-13.65 77.25-13.55L77.25-13.55Q77.7-13.5 78.3-13.5L78.3-13.5Q80.3-13.5 82.75-13.85L82.75-13.85Q83.15-13.9 83.6-13.95 84.05-14 84.5-14L84.5-14ZM79.45-42.05Q78.55-42.05 77.22-39 75.9-35.95 74.6-30.93 73.3-25.9 72.35-20.3L72.35-20.3Q76.35-24.85 78.5-29.78 80.65-34.7 80.7-39L80.7-39Q80.7-42.05 79.45-42.05L79.45-42.05ZM85.64 0.25Q83.74 0.25 82.97-1.75 82.19-3.75 82.19-8.15L82.19-8.15Q82.19-14.65 84.04-20.5L84.04-20.5Q84.49-21.95 85.52-22.63 86.54-23.3 88.39-23.3L88.39-23.3Q89.39-23.3 89.79-23.05 90.19-22.8 90.19-22.1L90.19-22.1Q90.19-21.3 89.44-18.5L89.44-18.5Q88.94-16.5 88.64-15 88.34-13.5 88.14-11.3L88.14-11.3Q89.79-15.6 91.84-18.3 93.89-21 95.87-22.15 97.84-23.3 99.49-23.3L99.49-23.3Q102.74-23.3 102.74-20.05L102.74-20.05Q102.74-19.4 102.29-16.9L102.29-16.9Q101.89-14.9 101.89-14.4L101.89-14.4Q101.89-12.65 103.14-12.65L103.14-12.65Q104.54-12.65 106.74-14.85L106.74-14.85Q107.39-15.5 108.09-15.5L108.09-15.5Q108.74-15.5 109.12-14.93 109.49-14.35 109.49-13.4L109.49-13.4Q109.49-11.55 108.49-10.5L108.49-10.5Q107.09-9.05 105.22-8.03 103.34-7 101.24-7L101.24-7Q98.59-7 97.22-8.35 95.84-9.7 95.84-12L95.84-12Q95.84-12.75 95.99-13.5L95.99-13.5Q96.09-14.5 96.09-14.85L96.09-14.85Q96.09-15.65 95.54-15.65L95.54-15.65Q94.79-15.65 93.57-13.98 92.34-12.3 91.14-9.55 89.94-6.8 89.19-3.75L89.19-3.75Q88.64-1.4 87.92-0.58 87.19 0.25 85.64 0.25L85.64 0.25ZM111.39-26.6Q109.29-26.6 108.24-27.58 107.19-28.55 107.19-30.3L107.19-30.3Q107.19-32.05 108.57-33.23 109.94-34.4 111.99-34.4L111.99-34.4Q113.84-34.4 114.99-33.5 116.14-32.6 116.14-30.95L116.14-30.95Q116.14-28.95 114.84-27.78 113.54-26.6 111.39-26.6L111.39-26.6ZM110.99 0.25Q107.74 0.25 106.27-2.05 104.79-4.35 104.79-8.15L104.79-8.15Q104.79-10.4 105.37-13.93 105.94-17.45 106.84-20.5L106.84-20.5Q107.29-22.1 108.04-22.7 108.79-23.3 110.44-23.3L110.44-23.3Q112.99-23.3 112.99-21.6L112.99-21.6Q112.99-20.35 112.04-15.8L112.04-15.8Q110.84-10.3 110.84-8.35L110.84-8.35Q110.84-6.85 111.24-6.05 111.64-5.25 112.59-5.25L112.59-5.25Q113.49-5.25 114.84-6.5 116.19-7.75 118.44-10.45L118.44-10.45Q119.04-11.15 119.79-11.15L119.79-11.15Q120.44-11.15 120.82-10.55 121.19-9.95 121.19-8.9L121.19-8.9Q121.19-6.9 120.24-5.8L120.24-5.8Q115.29 0.25 110.99 0.25L110.99 0.25ZM142.74-11.05Q143.39-11.05 143.76-10.43 144.14-9.8 144.14-8.85L144.14-8.85Q144.14-7.7 143.79-7.05 143.44-6.4 142.69-5.9L142.69-5.9Q138.39-3 136.39-1.6L136.39-1.6 133.19 0.55Q131.29 10.9 128.21 16.82 125.14 22.75 120.39 22.75L120.39 22.75Q117.84 22.75 116.24 21.18 114.64 19.6 114.64 17.05L114.64 17.05Q114.64 13.5 117.44 9.43 120.24 5.35 127.94-0.6L127.94-0.6 128.24-2.55Q127.39-1.2 126.01-0.48 124.64 0.25 123.29 0.25L123.29 0.25Q120.19 0.25 118.34-2 116.49-4.25 116.49-7.9L116.49-7.9Q116.49-11.9 118.34-15.48 120.19-19.05 123.26-21.23 126.34-23.4 129.79-23.4L129.79-23.4Q130.89-23.4 131.26-22.98 131.64-22.55 131.89-21.45L131.89-21.45Q132.84-21.65 134.09-21.65L134.09-21.65Q135.34-21.65 135.86-21.28 136.39-20.9 136.39-19.8L136.39-19.8Q136.39-19.2 136.34-18.85L136.34-18.85Q136.14-17.3 135.09-11L135.09-11Q134.89-9.8 134.66-8.38 134.44-6.95 134.19-5.35L134.19-5.35Q138.04-8.35 141.59-10.65L141.59-10.65Q142.24-11.05 142.74-11.05L142.74-11.05ZM125.09-4.8Q126.24-4.8 127.29-6.2 128.34-7.6 128.79-10.2L128.79-10.2 130.39-18.75Q128.34-18.7 126.59-17.18 124.84-15.65 123.79-13.15 122.74-10.65 122.74-7.85L122.74-7.85Q122.74-6.3 123.36-5.55 123.99-4.8 125.09-4.8L125.09-4.8ZM120.94 17.9Q122.19 17.9 123.76 14.9 125.34 11.9 126.79 5.35L126.79 5.35Q122.94 8.65 121.24 11.3 119.54 13.95 119.54 15.95L119.54 15.95Q119.54 16.8 119.86 17.35 120.19 17.9 120.94 17.9L120.94 17.9ZM163.38-11.15Q164.03-11.15 164.41-10.55 164.78-9.95 164.78-8.9L164.78-8.9Q164.78-6.9 163.84-5.8L163.84-5.8Q161.99-3.55 158.61-1.65 155.24 0.25 151.38 0.25L151.38 0.25Q146.13 0.25 143.24-2.6 140.34-5.45 140.34-10.4L140.34-10.4Q140.34-13.85 141.78-16.82 143.24-19.8 145.81-21.55 148.38-23.3 151.63-23.3L151.63-23.3Q154.53-23.3 156.28-21.58 158.03-19.85 158.03-16.9L158.03-16.9Q158.03-13.45 155.56-10.98 153.09-8.5 147.19-7.05L147.19-7.05Q148.44-4.75 151.94-4.75L151.94-4.75Q154.19-4.75 157.06-6.33 159.94-7.9 162.03-10.45L162.03-10.45Q162.63-11.15 163.38-11.15L163.38-11.15ZM150.78-18.4Q148.94-18.4 147.66-16.25 146.38-14.1 146.38-11.05L146.38-11.05 146.38-10.95Q149.34-11.65 151.03-13.05 152.74-14.45 152.74-16.3L152.74-16.3Q152.74-17.25 152.21-17.82 151.69-18.4 150.78-18.4L150.78-18.4ZM164.28 0.25Q162.38 0.25 161.61-1.75 160.83-3.75 160.83-8.15L160.83-8.15Q160.83-14.65 162.68-20.5L162.68-20.5Q163.13-21.95 164.16-22.63 165.18-23.3 167.03-23.3L167.03-23.3Q168.03-23.3 168.43-23.05 168.83-22.8 168.83-22.1L168.83-22.1Q168.83-21.3 168.08-18.5L168.08-18.5Q167.58-16.5 167.28-15 166.98-13.5 166.78-11.3L166.78-11.3Q168.43-15.6 170.48-18.3 172.53-21 174.51-22.15 176.48-23.3 178.13-23.3L178.13-23.3Q181.38-23.3 181.38-20.05L181.38-20.05Q181.38-19.4 180.93-16.9L180.93-16.9Q180.53-14.9 180.53-14.4L180.53-14.4Q180.53-12.65 181.78-12.65L181.78-12.65Q183.18-12.65 185.38-14.85L185.38-14.85Q186.03-15.5 186.73-15.5L186.73-15.5Q187.38-15.5 187.76-14.93 188.13-14.35 188.13-13.4L188.13-13.4Q188.13-11.55 187.13-10.5L187.13-10.5Q185.73-9.05 183.86-8.03 181.98-7 179.88-7L179.88-7Q177.23-7 175.86-8.35 174.48-9.7 174.48-12L174.48-12Q174.48-12.75 174.63-13.5L174.63-13.5Q174.73-14.5 174.73-14.85L174.73-14.85Q174.73-15.65 174.18-15.65L174.18-15.65Q173.43-15.65 172.21-13.98 170.98-12.3 169.78-9.55 168.58-6.8 167.83-3.75L167.83-3.75Q167.28-1.4 166.56-0.58 165.83 0.25 164.28 0.25L164.28 0.25ZM189.63 0.25Q186.53 0.25 184.68-2 182.83-4.25 182.83-7.9L182.83-7.9Q182.83-11.9 184.68-15.48 186.53-19.05 189.61-21.23 192.68-23.4 196.13-23.4L196.13-23.4Q197.23-23.4 197.61-22.98 197.98-22.55 198.23-21.45L198.23-21.45Q199.28-21.65 200.43-21.65L200.43-21.65Q202.88-21.65 202.88-19.9L202.88-19.9Q202.88-18.85 202.13-14.9L202.13-14.9Q200.98-9.15 200.98-6.9L200.98-6.9Q200.98-6.15 201.36-5.7 201.73-5.25 202.33-5.25L202.33-5.25Q203.28-5.25 204.63-6.48 205.98-7.7 208.28-10.45L208.28-10.45Q208.88-11.15 209.63-11.15L209.63-11.15Q210.28-11.15 210.66-10.55 211.03-9.95 211.03-8.9L211.03-8.9Q211.03-6.9 210.08-5.8L210.08-5.8Q208.03-3.25 205.73-1.5 203.43 0.25 201.28 0.25L201.28 0.25Q199.63 0.25 198.26-0.88 196.88-2 196.18-3.95L196.18-3.95Q193.58 0.25 189.63 0.25L189.63 0.25ZM191.43-4.8Q192.53-4.8 193.53-6.1 194.53-7.4 194.98-9.55L194.98-9.55 196.83-18.75Q194.73-18.7 192.96-17.18 191.18-15.65 190.13-13.15 189.08-10.65 189.08-7.85L189.08-7.85Q189.08-6.3 189.71-5.55 190.33-4.8 191.43-4.8L191.43-4.8ZM229.28-11.15Q229.93-11.15 230.3-10.55 230.68-9.95 230.68-8.9L230.68-8.9Q230.68-6.9 229.73-5.8L229.73-5.8Q227.58-3.15 225.03-1.45 222.48 0.25 219.18 0.25L219.18 0.25Q208.98 0.25 208.98-14.1L208.98-14.1Q208.98-16.3 209.13-18.55L209.13-18.55 207.18-18.55Q205.68-18.55 205.15-19.1 204.63-19.65 204.63-20.85L204.63-20.85Q204.63-23.65 206.88-23.65L206.88-23.65 209.73-23.65Q210.58-29.15 212.33-33.7 214.08-38.25 216.55-40.95 219.03-43.65 221.88-43.65L221.88-43.65Q223.98-43.65 225.18-41.8 226.38-39.95 226.38-37.15L226.38-37.15Q226.38-29.4 219.88-23.65L219.88-23.65 225.48-23.65Q226.28-23.65 226.63-23.3 226.98-22.95 226.98-22L226.98-22Q226.98-18.55 221.33-18.55L221.33-18.55 215.23-18.55Q215.13-16.05 215.13-14.65L215.13-14.65Q215.13-9.45 216.35-7.35 217.58-5.25 220.23-5.25L220.23-5.25Q222.38-5.25 224.03-6.55 225.68-7.85 227.93-10.45L227.93-10.45Q228.53-11.15 229.28-11.15L229.28-11.15ZM220.53-38.85Q219.78-38.85 218.85-36.98 217.93-35.1 217.1-31.78 216.28-28.45 215.73-24.4L215.73-24.4Q218.68-26.95 220.15-30.13 221.63-33.3 221.63-35.9L221.63-35.9Q221.63-38.85 220.53-38.85L220.53-38.85ZM233.18-26.6Q231.08-26.6 230.03-27.58 228.98-28.55 228.98-30.3L228.98-30.3Q228.98-32.05 230.35-33.23 231.73-34.4 233.78-34.4L233.78-34.4Q235.63-34.4 236.78-33.5 237.93-32.6 237.93-30.95L237.93-30.95Q237.93-28.95 236.63-27.78 235.33-26.6 233.18-26.6L233.18-26.6ZM232.78 0.25Q229.53 0.25 228.05-2.05 226.58-4.35 226.58-8.15L226.58-8.15Q226.58-10.4 227.15-13.93 227.73-17.45 228.63-20.5L228.63-20.5Q229.08-22.1 229.83-22.7 230.58-23.3 232.23-23.3L232.23-23.3Q234.78-23.3 234.78-21.6L234.78-21.6Q234.78-20.35 233.83-15.8L233.83-15.8Q232.63-10.3 232.63-8.35L232.63-8.35Q232.63-6.85 233.03-6.05 233.43-5.25 234.38-5.25L234.38-5.25Q235.28-5.25 236.63-6.5 237.98-7.75 240.23-10.45L240.23-10.45Q240.83-11.15 241.58-11.15L241.58-11.15Q242.23-11.15 242.6-10.55 242.98-9.95 242.98-8.9L242.98-8.9Q242.98-6.9 242.03-5.8L242.03-5.8Q237.08 0.25 232.78 0.25L232.78 0.25ZM264.42-15.35Q265.07-15.35 265.42-14.7 265.77-14.05 265.77-13.05L265.77-13.05Q265.77-10.65 264.32-10.2L264.32-10.2Q261.32-9.15 257.72-9L257.72-9Q256.77-4.8 253.97-2.27 251.17 0.25 247.62 0.25L247.62 0.25Q244.62 0.25 242.5-1.2 240.37-2.65 239.27-5.05 238.17-7.45 238.17-10.25L238.17-10.25Q238.17-14.05 239.62-17.03 241.07-20 243.62-21.68 246.17-23.35 249.27-23.35L249.27-23.35Q253.07-23.35 255.4-20.73 257.72-18.1 258.12-14.25L258.12-14.25Q260.47-14.4 263.72-15.25L263.72-15.25Q264.12-15.35 264.42-15.35L264.42-15.35ZM248.02-5.05Q249.62-5.05 250.8-6.35 251.97-7.65 252.37-10.1L252.37-10.1Q250.82-11.15 250-12.85 249.17-14.55 249.17-16.45L249.17-16.45Q249.17-17.25 249.32-18.05L249.32-18.05 249.07-18.05Q247.07-18.05 245.75-16.13 244.42-14.2 244.42-10.7L244.42-10.7Q244.42-7.95 245.5-6.5 246.57-5.05 248.02-5.05L248.02-5.05ZM265.02 0.25Q263.12 0.25 262.35-1.75 261.57-3.75 261.57-8.15L261.57-8.15Q261.57-14.65 263.42-20.5L263.42-20.5Q263.87-21.95 264.9-22.63 265.92-23.3 267.77-23.3L267.77-23.3Q268.77-23.3 269.17-23.05 269.57-22.8 269.57-22.1L269.57-22.1Q269.57-21.3 268.82-18.5L268.82-18.5Q268.32-16.5 268.02-15 267.72-13.5 267.52-11.3L267.52-11.3Q269.17-15.6 271.22-18.3 273.27-21 275.25-22.15 277.22-23.3 278.87-23.3L278.87-23.3Q282.12-23.3 282.12-20.05L282.12-20.05Q282.12-18.1 281.02-13L281.02-13Q280.07-8.65 280.07-7.25L280.07-7.25Q280.07-5.25 281.52-5.25L281.52-5.25Q282.52-5.25 283.9-6.48 285.27-7.7 287.57-10.45L287.57-10.45Q288.17-11.15 288.92-11.15L288.92-11.15Q289.57-11.15 289.95-10.55 290.32-9.95 290.32-8.9L290.32-8.9Q290.32-6.9 289.37-5.8L289.37-5.8Q287.22-3.15 284.75-1.45 282.27 0.25 279.12 0.25L279.12 0.25Q276.57 0.25 275.27-1.23 273.97-2.7 273.97-5.5L273.97-5.5Q273.97-6.9 274.67-10.5L274.67-10.5Q275.32-13.65 275.32-14.85L275.32-14.85Q275.32-15.65 274.77-15.65L274.77-15.65Q274.12-15.65 272.95-13.98 271.77-12.3 270.55-9.55 269.32-6.8 268.57-3.75L268.57-3.75Q268.02-1.4 267.3-0.58 266.57 0.25 265.02 0.25L265.02 0.25Z" opacity="1" transform="matrix(1,0,0,1,0,0)" fill="#0097c8" class="slogan-text-1" data-fill-palette-color="secondary" id="text-1"></path></svg></g></svg></g></svg></g></svg></g><g><svg viewBox="0 0 59.64063898866696 59.64063898866696" height="59.64063898866696" width="59.64063898866696"><g><svg></svg></g><g id="icon-0"><svg viewBox="0 0 59.64063898866696 59.64063898866696" height="59.64063898866696" width="59.64063898866696"><g><rect width="54.22880322858422" height="54.22880322858422" x="2.705917880041369" y="2.705917880041369" fill="#1c4b82" data-fill-palette-color="accent"></rect><rect width="54.22880322858422" height="54.22880322858422" x="5.41183576008274" y="-1.7763568394002505e-15" fill="#1c4b82" opacity="0.5" data-fill-palette-color="accent"></rect></g><g transform="matrix(1,0,0,1,9.31508666936923,7.731193942975345)"><svg viewBox="0 0 41.0104656499285 44.17825110271627" height="44.17825110271627" width="41.0104656499285"><g><svg xmlns="http://www.w3.org/2000/svg" xmlns:xlink="http://www.w3.org/1999/xlink" version="1.1" x="0" y="0" viewBox="35.92844759481371 18.940542664194233 440.03725311397386 474.0272014602825" style="enable-background:new 0 0 512 512;" xml:space="preserve" height="44.17825110271627" width="41.0104656499285" class="icon-cg-0" data-fill-palette-color="quaternary" id="cg-0"><path d="M319.6 192.4c-35.1-35.1-92-35.1-127.2 0-35.1 35.1-35.1 92 0 127.2 35.1 35.1 92 35.1 127.2 0C354.7 284.5 354.7 227.5 319.6 192.4L319.6 192.4zM167.1 210.3c1.5-2.9 3.1-5.8 4.9-8.5l-17.5-10.1 0 0-3.2-1.8 0.5-75.3c0-4.3-5.2-6.6-8.3-3.5-0.9 0.9-1.4 2.1-1.5 3.4l-0.5 69.8-29.1-16.8 0.4-52.4c0-4.4-5.2-6.6-8.3-3.5-0.9 0.9-1.4 2.1-1.4 3.4l-0.3 46.9-29.1-16.8 0.2-29.5h0c0.3-0.3-0.6-4.9-4.8-5v0c-0.3-0.3-4.9 0.6-5 4.8L64 145.1c-8.5 5-17.1 10-25.6 15.1-3.7 2.2-2.9 7.8 1.3 8.9 1.2 0.3 2.6 0.2 3.7-0.5l25.5-15 29.1 16.8c-13.5 7.9-26.9 16-40.5 23.8-3.7 2.2-3 7.8 1.2 8.9 1.2 0.3 2.5 0.2 3.7-0.5l45.2-26.6 29.1 16.8-60.2 35.3c-3.7 2.2-2.9 7.8 1.2 8.9 1.2 0.3 2.6 0.2 3.7-0.5l64.9-38.1L167.1 210.3zM172 310.1c-1.8-2.7-3.4-5.6-4.9-8.5l-20.6 11.9-65-38.1c-3.7-2.2-8.3 1.2-7.2 5.4 0.3 1.2 1.1 2.3 2.2 3l60.2 35.3L107.6 336c-15.1-8.8-30.2-17.7-45.2-26.5-3.7-2.2-8.3 1.2-7.2 5.4 0.3 1.2 1.1 2.3 2.2 2.9 13.5 8 27 15.8 40.5 23.8l-29.1 16.8-25.5-15c-3.9-2.2-8.3 1.3-7.2 5.4 0.3 1.2 1.1 2.3 2.2 3L64 366.9l0.2 29.7c0 4.3 5.3 6.5 8.3 3.4 0.9-0.9 1.4-2.1 1.4-3.5l-0.2-29.6 29.1-16.8 0.3 46.9c0 4.2 4.6 5.1 4.9 4.8l0 0c4.2 0 5.1-4.6 4.8-5h0l-0.4-52.4 29.1-16.8 0.5 69.8c0 4.3 5.3 6.5 8.4 3.4 0.9-0.9 1.4-2.1 1.4-3.5l-0.5-75.3 3.2-1.8 0 0L172 310.1zM260.9 355.8h-9.8v23.9l-65.5 37.2c-3.8 2.2-3.1 7.8 1.1 9 1.2 0.3 2.5 0.2 3.7-0.5l60.7-34.5v33.6l-45.6 25.9c-3.8 2.1-3.1 7.8 1.1 8.9 1.2 0.3 2.5 0.2 3.7-0.5l40.8-23.2v33.6l-25.7 14.6c-3.8 2.2-3.1 7.8 1.1 9 1.2 0.3 2.6 0.2 3.7-0.5l25.8-14.7 25.8 14.7c3.8 2.2 8.2-1.4 7.1-5.5-0.3-1.2-1.1-2.3-2.3-2.9l-25.7-14.6v-33.6l40.8 23.2c3.8 2.1 8.3-1.4 7.1-5.5-0.3-1.2-1.1-2.3-2.3-2.9l-45.6-25.9v-33.6l60.7 34.5c3.8 2.1 8.2-1.4 7.1-5.6-0.3-1.2-1.1-2.3-2.3-2.9l-65.5-37.2V355.8zM344.9 301.7c-1.5 2.9-3.1 5.8-4.9 8.5l20.7 11.9-0.5 75.3c0 4.3 5.2 6.6 8.3 3.5 0.9-0.9 1.4-2.1 1.4-3.4l0.5-69.8 29.1 16.8-0.4 52.4c0 4.3 5.2 6.6 8.3 3.5 0.9-0.9 1.4-2.1 1.4-3.4l0.3-46.9 29.1 16.8-0.2 29.6c0 4.3 5.2 6.6 8.3 3.5 0.9-0.9 1.4-2.1 1.4-3.4l0.2-29.7 25.6-15.1c3.7-2.2 2.9-7.8-1.2-8.9-1.2-0.3-2.6-0.2-3.7 0.5-8.4 5.1-17 10-25.5 15l-29.1-16.8 40.5-23.7c3.7-2.2 2.9-7.9-1.2-8.9-1.2-0.3-2.6-0.2-3.7 0.5L404.3 336l-29.1-16.8 60.2-35.3c3.7-2.2 3-7.9-1.2-8.9-1.2-0.3-2.6-0.2-3.7 0.5l-65 38.1L344.9 301.7zM340 201.9c1.8 2.7 3.4 5.6 4.9 8.5l20.6-11.9c21.7 12.7 43.3 25.4 65 38.1 3.7 2.2 8.3-1.2 7.2-5.4-0.3-1.2-1.1-2.3-2.3-3l-60.2-35.3 29.1-16.8 45.2 26.6c3.7 2.2 8.3-1.2 7.2-5.4-0.3-1.2-1.1-2.3-2.2-2.9-13.5-7.9-27-15.8-40.5-23.8l29.1-16.8c8.5 5 17.1 9.9 25.5 15 3.7 2.2 8.3-1.2 7.2-5.4-0.3-1.2-1.1-2.3-2.2-3l-25.6-15-0.2-29.7c0-4.3-5.3-6.5-8.4-3.4-0.9 0.9-1.4 2.1-1.4 3.5l0.2 29.6-29.1 16.8-0.3-46.9c0-4.3-5.3-6.5-8.3-3.4-0.9 0.9-1.4 2.1-1.4 3.5l0.4 52.4-29.1 16.8-0.5-69.8c0-4.3-5.3-6.5-8.3-3.4-0.9 0.9-1.4 2.1-1.4 3.5l0.5 75.3-3.2 1.8h0L340 201.9zM256 156.1c1.6 0 3.3 0 4.9 0.1v-23.8l65.5-37.2c3.8-2.1 3.1-7.8-1.1-8.9-1.2-0.3-2.6-0.2-3.7 0.5l-60.7 34.5V87.5l45.6-25.9c3.8-2.2 3.1-7.8-1.1-8.9-1.2-0.3-2.5-0.2-3.7 0.5l-40.8 23.2V42.7l25.7-14.6c3.8-2.2 3.1-7.8-1.1-9-1.2-0.3-2.5-0.2-3.7 0.5L256 34.3l-25.8-14.7c-3.8-2.1-8.2 1.4-7.1 5.6 0.3 1.2 1.1 2.3 2.3 2.9l25.7 14.6v33.6l-40.8-23.2c-3.8-2.2-8.2 1.4-7.1 5.5 0.3 1.2 1.1 2.3 2.3 2.9 15.2 8.6 30.4 17.3 45.6 25.9v33.6l-60.7-34.5c-3.8-2.1-8.3 1.4-7.1 5.5 0.3 1.2 1.1 2.3 2.3 2.9l65.5 37.2v23.8C252.7 156.1 254.4 156.1 256 156.1L256 156.1zM273 239c-15.1-15.1-41.1-4.4-41.1 17 0 21.4 26 32.1 41.1 17C282.4 263.6 282.4 248.4 273 239L273 239zM256 221.9c18.8 0 34 15.3 34 34.1 0 18.8-15.3 34-34 34-18.8 0-34.1-15.3-34.1-34C221.9 237.2 237.2 221.9 256 221.9L256 221.9zM279.9 214.5c-3.2-1.8-6.7-3.3-10.3-4.4-1.8-0.4-3.3-1.9-3.7-3.8l-2.6-12.5h-14.6l-2.6 12.5 0 0c-0.4 1.7-1.7 3.2-3.5 3.8-6.8 2-14.6 6.2-19.5 11.2-1.3 1.4-3.3 2-5.2 1.4l-12.2-4-7.3 12.6 9.6 8.5 0 0c1.3 1.2 2 3 1.5 4.9-1.6 6.7-1.9 15.8-0.1 22.5 0.6 1.8 0.1 3.9-1.4 5.2l-9.6 8.5 7.3 12.6 12.2-4 0 0c1.7-0.6 3.6-0.2 5 1.1 5.2 5 12.6 9.5 19.5 11.3 1.8 0.4 3.3 1.9 3.7 3.8l2.6 12.5h14.6l2.6-12.5 0 0c0.4-1.8 1.6-3.2 3.5-3.8 6.7-2 14.6-6.2 19.5-11.2 1.3-1.4 3.3-2 5.2-1.4l12.2 4 7.3-12.6-9.6-8.5h0c-1.3-1.2-2-3.1-1.5-4.9 1.6-6.9 1.9-15.7 0.1-22.5-0.6-1.8-0.1-3.9 1.4-5.2l9.6-8.5-7.3-12.6-12.2 4 0 0c-1.7 0.5-3.7 0.2-5-1.2C286.3 218.8 283.2 216.5 279.9 214.5L279.9 214.5zM275.1 201.4c6.9 2.4 13.2 6 18.7 10.8l13.3-4.4c2.4-0.8 4.9 0.3 6 2.5l11.2 19.4c1.2 2.1 0.7 4.7-1 6.2l0 0-10.4 9.3c1.3 7.1 1.3 14.5 0 21.5l10.4 9.3c1.9 1.6 2.2 4.4 0.9 6.4L312.9 302c-1.2 2.1-3.7 2.9-5.9 2.2l0 0-13.3-4.4c-5.5 4.7-11.8 8.4-18.7 10.8l-2.9 13.7c-0.5 2.4-2.6 4-4.9 4l0 0h-22.7c-2.5 0-4.6-1.9-4.9-4.3l-2.8-13.3c-6.9-2.4-13.2-6.1-18.7-10.8l-13.3 4.4c-2.4 0.8-5-0.4-6.1-2.6l-11.1-19.3c-1.2-2.1-0.7-4.7 1-6.2h0l10.4-9.3c-1.4-7.2-1.4-14.4 0-21.5l-10.4-9.3c-1.9-1.6-2.2-4.4-0.9-6.4l11.2-19.4c1.2-2.1 3.7-3 5.9-2.2l0 0 13.3 4.4c5.5-4.7 11.8-8.4 18.7-10.8l2.8-13.7c0.5-2.4 2.6-4 4.9-4v0h22.7c2.6 0 4.6 1.9 5 4.3L275.1 201.4z" fill="#ffffff" data-fill-palette-color="quaternary"></path></svg></g></svg></g></svg></g></svg></g></svg></g></svg></g><g><path d="M0 123.6c0-68.262 55.338-123.6 123.6-123.6 59.48 0 109.147 42.015 120.943 97.986h-0.799c-11.782-55.536-61.097-97.205-120.144-97.205-67.831 0-122.819 54.988-122.819 122.819 0 67.831 54.988 122.819 122.819 122.819 59.047 0 108.362-41.669 120.144-97.205l0.799 0c-11.795 55.971-61.462 97.986-120.943 97.986-68.262 0-123.6-55.338-123.6-123.6z" fill="#1c4b82" stroke="transparent" data-fill-palette-color="tertiary"></path></g></svg></g><defs></defs></svg><rect width="395.52" height="247.2" fill="none" stroke="none" visibility="hidden"></rect></g></svg></g></svg>